<svg xmlns="http://www.w3.org/2000/svg" width="256" height="256" fill="none" viewBox="0 0 256 256">
<!-- SVG created with Arrow, by QuiverAI (https://quiver.ai) -->
  <path d="m4.75 58.19c0-30.08 24.76-55.44 55.59-55.44h134.3c30.83 0 55.59 25.36 55.59 55.85v139.2c0 30.08-24.76 55.44-55.59 55.44h-134.3c-30.83 0-55.59-25.36-55.59-55.85v-139.2z" fill="url(#paint0_linear_1428_1012)" stroke="url(#paint1_linear_1428_1012)" stroke-width="2.5"/>
  <path d="m250.2 114.9-49.41-51.75 1.28 2.13c-12.05-15.19-31.21-27.79-53.21-32.43 30.9 3.92 64.98 28.04 72.18 70.46l-5.1 3.81 6.58-0.28-0.38 22.29-17.53-15.87 5.29-0.28c-15.04-27.78-41.67-45.73-74.23-48.04-15.66-0.38-31.91 4.54-43.76 15.01 14.85-18.78 34.85-24.8 58-24.7 17.06 0.09 33.31 5.01 45.06 14.7-14.28-7.85-33.41-12.3-48.97-10.35l-9.87 2.41c30.74-1.85 57.66 10.14 80.19 45.11l1.18 2.04 3.92-2.9 0.62 22.87-17.81-16.63 5.01-0.38-14.38-0.38 16.16 14.09c5.84 31.5-10.6 62.09-33.32 78.25 19.03-17.85 26.53-37.96 23.09-64.93-2.23-13.13-5.93-25.99-14.68-36.65l-31.94-25.9c22.82 5.21 39.62 16.93 49.69 35.14l-9-0.38 7.21 6.49c-1.85-2.8-3.99-5.35-6.41-7.86-9.65-9.98-21.5-22.93-36.65-30.96 20.85 8.03 32.7 23.22 31.92 22.15 9.18 13.22 12.63 33.05-0.86 15.75 7.01 23.89 4.3 62.52-29.09 91.17l-8.86 6.97c24.59-23.51 37.74-53.15 33.32-98.71 8.45 20.39 7.38 62.32-23.98 91.84-8.55 6.96-12.77 7.63-13.85 8.6 24.1-5.1 60.45-21.64 72.2-72.83-3.05 38.02-24.95 71.76-72.3 80.57 29.48-10.37 59.17-33.65 72.3-79.69l-0.19 0.29c-6.25 39.05-32.54 71.94-72.21 79.31l0.3-0.1c-0.68 0.19-1.36 0.38-2.04 0.48l1.74-0.48c-0.48 0.1-0.86 0.19-1.35 0.29l1.35-0.29c-0.58 0.1-1.16 0.29-1.74 0.38l1.74-0.38c-0.58 0.1-1.16 0.29-1.74 0.38l1.74-0.38c-0.58 0.1-1.16 0.29-1.74 0.38l3.24-0.96c21.05-8.04 38.66-22.95 49.75-43.82-9.86 20.58-27.58 34.31-50.56 43.82l0.78-0.19c-0.98 0.38-2.05 0.77-3.12 1.06l1.65-0.68c-0.48 0.2-0.96 0.39-1.54 0.58l1.54-0.67c-0.68 0.29-1.35 0.48-2.03 0.77l2.03-0.87c-0.68 0.29-1.35 0.58-2.13 0.87l2.13-0.97c-0.68 0.29-1.35 0.58-2.13 0.87l2.13-0.96c-0.58 0.29-1.25 0.58-1.93 0.77l1.93-0.97c-0.68 0.29-1.35 0.58-2.03 0.87l2.03-1.06c-0.68 0.29-1.35 0.58-2.03 0.87l2.03-1.06c-0.68 0.29-1.35 0.58-2.13 0.87l2.13-1.16c-0.68 0.29-1.35 0.58-2.13 0.87l2.13-1.16c-0.68 0.29-1.35 0.58-2.13 0.87l2.13-1.16c-0.68 0.29-1.35 0.58-2.13 0.87l2.13-1.26c-0.68 0.3-1.35 0.58-2.03 0.87l2.03-1.25c-0.68 0.29-1.35 0.58-2.03 0.86l2.03-1.25c-0.68 0.29-1.35 0.58-2.03 0.87l2.03-1.26c-0.68 0.29-1.35 0.58-2.13 0.87l2.13-1.26c-0.68 0.29-1.35 0.58-2.13 0.87l2.13-1.26c-0.68 0.29-1.35 0.58-2.13 0.87l2.13-1.25c-0.68 0.29-1.35 0.58-2.13 0.87l2.13-1.26c-0.68 0.29-1.35 0.58-2.13 0.87l2.13-1.26c-0.68 0.29-1.35 0.58-2.13 0.87l2.13-1.25c-0.68 0.29-1.35 0.58-2.13 0.86l2.13-1.25c-0.68 0.29-1.35 0.58-2.13 0.87l2.13-1.26c-0.68 0.29-1.35 0.58-2.13 0.87l2.13-1.26c-0.68 0.29-1.35 0.58-2.13 0.87l2.13-1.26c-0.68 0.29-1.35 0.58-2.13 0.87l2.13-1.25c-0.68 0.29-1.35 0.58-2.13 0.87l2.13-1.26c-0.68 0.29-1.35 0.58-2.13 0.87l2.13-1.25c-0.68 0.29-1.35 0.57-2.13 0.86l2.13-1.25c-0.68 0.29-1.35 0.58-2.13 0.87l2.13-1.25c-0.68 0.29-1.35 0.57-2.13 0.86l2.13-1.25c-0.68 0.29-1.35 0.58-2.13 0.87l2.13-1.26c-0.68 0.29-1.35 0.58-2.13 0.87l2.13-1.26c-0.68 0.29-1.35 0.58-2.13 0.87l2.13-1.25c-0.68 0.29-1.35 0.58-2.13 0.87l2.13-1.26c-0.68 0.29-1.35 0.58-2.13 0.87l2.13-1.25c-0.68 0.29-1.35 0.57-2.13 0.86l2.13-1.25c-0.68 0.29-1.35 0.58-2.13 0.87l2.13-1.25c-0.68 0.29-1.35 0.58-2.13 0.87l2.13-1.26c-0.68 0.29-1.35 0.58-2.13 0.87l2.13-1.25c-0.68 0.28-1.35 0.57-2.13 0.86l2.13-1.25c-0.68 0.29-1.35 0.58-2.13 0.87l2.13-1.26c-0.68 0.29-1.35 0.58-2.13 0.87l2.13-1.25c-0.68 0.28-1.35 0.57-2.13 0.86l2.13-1.25c-0.68 0.29-1.35 0.58-2.13 0.87l2.13-1.26c-0.68 0.29-1.35 0.58-2.13 0.87l2.13-1.26c-0.68 0.29-1.35 0.58-2.13 0.87l2.13-1.26c-0.68 0.29-1.35 0.58-2.13 0.87l2.13-1.25c-0.68 0.28-1.35 0.57-2.13 0.87l2.13-1.26c-0.68 0.29-1.35 0.58-2.13 0.87l2.13-1.25c-0.68 0.29-1.35 0.57-2.13 0.86l2.13-1.25c-0.68 0.29-1.35 0.58-2.13 0.87l2.13-1.26c-0.68 0.29-1.35 0.58-2.13 0.87l2.13-1.25c-0.68 0.29-1.35 0.58-2.13 0.87l2.13-1.26c-0.68 0.29-1.35 0.58-2.13 0.87l2.13-1.26c-0.68 0.29-1.35 0.58-2.13 0.87l2.13-1.25c-0.68 0.29-1.35 0.58-2.13 0.87l2.13-1.26c-0.68 0.29-1.35 0.58-2.13 0.87l2.13-1.25c-0.68 0.29-1.35 0.58-2.13 0.86l2.13-1.25c-0.68 0.29-1.35 0.58-2.13 0.87l2.13-1.26c-0.68 0.29-1.35 0.58-2.13 0.87l2.13-1.25c-0.68 0.29-1.35 0.58-2.13 0.86" stroke="#182A4D" stroke-miterlimit="10" stroke-width="2.5"/>
  <path d="m106.1 32.81c-37.87 5.3-69.23 33.57-71.17 79.84 5.95-32.45 23.86-61.01 71.17-79.84z" fill="#4AF6F6"/>
  <path d="m148.7 32.81c30.49 4.34 61.08 26.26 72.35 70.46-10.36-23.26-32.98-56.53-72.35-70.46z" fill="url(#paint2_linear_1428_1012)"/>
  <path d="m159.7 46.64c6.05 0.58 11.06 3.28 14.6 6.73-4.21-1.35-9.51-3.86-14.6-6.73z" fill="#88D1D1"/>
  <path d="m122.8 26.98 23.92 12.57-0.29-0.1 0.19 0.19-0.09-0.09 0.09 0.19 0.19 0.09-0.19-0.09 0.29 0.19-22.26 14.02 0.29-7.26c-30.69 6.29-54.9 34.27-55.78 97.53-12.85-32.14-8.24-78.81 29.13-101.1 8.16-4.62 16.61-7.42 26.77-9.17l-2.26-6.96z" fill="#4AF6F6"/>
  <path d="m75.76 54.14c-26.63 21.73-38.57 52.94-31.08 74.77l-11.94-2.9c8.17 23.9 24.32 44.2 46.32 53.7 11.36 6.1 23.11 7.65 32.38 7.94l-0.29-2.13c-27.02-6.59-49.12-27.65-57.19-56.9-6.81-26.68 1.25-54.56 21.8-74.48z" fill="url(#paint3_linear_1428_1012)"/>
  <path d="m34.67 146.9c14.28 26.77 40.61 51.15 91.54 48.25-24.59 6.96-55.38 3.62-77.54-18.68 9.96 20.96 27.39 37.66 59.14 47.14-35.6-5.32-67.76-26.47-73.14-76.71z" fill="url(#paint4_linear_1428_1012)"/>
  <path d="m48.28 126.1c1.85 16.63 8.66 31.83 20.41 41.23-9.47-3.35-17.44-9.54-22.44-18.25l2.03-22.98z" fill="#38E1EA"/>
  <path d="m177.1 153.7c-12.33 24.38-33.95 47.84-64.12 53.39-11.55 2.13-22.91 0-32.97-3.96 12.33 10.72 25.93 14.88 47.71 13.91l-3.34 11.01c25.75-15.93 46.3-32.84 52.72-74.35z" fill="url(#paint5_linear_1428_1012)"/>
  <path d="m161 186.1c-10.57 16.67-23.42 24.98-43.32 25.36 12.95-3.87 26.26-8.69 43.32-25.36z" fill="#1BA1E2"/>
  <path d="m125 72.94v18.72h4.71v-18.72h-4.71z" fill="#38E1EA"/>
  <path d="m120.8 79.91c-21.46 2.41-37.22 18.56-40.86 41.33h5.1c3.64-17.95 15.68-31.18 35.76-35.52v-5.81z" fill="#38E1EA"/>
  <path d="m134.3 79.81v5.11c19.41 2.99 34.16 17.11 37.2 36.32h4.32c-3.14-21.16-19-38.06-41.52-41.43z" fill="#38E1EA"/>
  <path d="m120.8 90.63c-16.16 3.24-26.03 14.54-29.57 30.61h2.72c3.64-14.12 12.59-24.3 26.85-27.46v-3.15z" fill="#1BA1E2"/>
  <path d="m134.3 90.44v3.05c14.65 3.54 24.52 13.72 28.35 27.75h3.24c-3.64-16.07-14-27.18-31.59-30.8z" fill="#1BA1E2"/>
  <path d="m72.92 125.8v4.35h25.92v-4.35h-25.92z" fill="#38E1EA"/>
  <path d="m156.9 125.8v4.35h25.91v-4.35h-25.91z" fill="#1BA1E2"/>
  <path d="m79.64 134.5c2.81 17.28 14.27 32.93 33 40.28l0.78-5.01c-14.96-5.92-24.73-18.67-27.34-35.27h-6.44z" fill="#1BA1E2"/>
  <path d="m171 134.5c-2.81 14.62-12.58 25.48-30.89 29.53l1.95 10.27c16.65-6.2 30.81-20.52 33.75-39.8h-4.81z" fill="#1BA1E2"/>
  <path d="m164.9 134.5h-3.14c-3.54 12.66-10.74 22.15-22.29 27.36l0.49 2.22c13.3-5.11 21.75-15.38 24.94-29.58z" fill="#0988CC"/>
  <path d="m91.41 134.5c3.14 12.18 9.95 21.96 21.9 27.74l0.58-2.5c-10.36-5.01-17.67-13.63-19.93-25.24h-2.55z" fill="#0988CC"/>
  <path d="m124.1 97.12c-0.77 0-0.97 0.58-0.97 1.16v5.68c-9.65 1.75-13.97 10.96-13.97 17.15v14.61c0 1.16 0.48 1.54 1.26 2.02l10.66 6c1.07 0.58 1.07 2.03 1.07 3.1v14.81c0 3.96 8.07 5.41 10.01 0.48v-15.68c0-1.36 0.68-2.23 1.75-3l11.16-6.29c0.97-0.57 0.97-1.15 0.97-2.22v-13.83c0-8.03-6.91-15.69-15.36-17.15v-5.68c0-0.87-0.68-1.26-1.46-1.26h-5.12v0.1z" fill="#fff"/>
  <path d="m145.9 120.6c-1.46 8.85-8.08 15.14-20.91 16.99-1.85 0.29-2.83 1.16-2.83 3v21.16c0 3.96 8.07 5.41 10.01 0.49v-15.68c0-1.35 0.68-2.22 1.75-3l11.16-6.28c0.97-0.58 0.97-1.16 0.97-2.22v-14.46h-0.15z" fill="#C7E9F7"/>
  <path d="m127.7 132.2c7.05 0 10.56-5.55 10.56-10.47 0-6.68-5.01-10.44-10.47-10.44-6.53 0-10.17 5.41-10.17 10.34 0 6.19 5.09 10.57 10.08 10.57z" fill="#163959"/>
  <path d="m118.8 167.6-2.14 19.35c-0.19 1.94 0.78 2.52 2.24 2.52h16.55c2.23 0 3.3-1.75 3.01-3.79l-2.95-18.64c-4.61 5.31-12.58 5.31-16.71 0.56z" fill="#fff"/>
  <path d="m126.3 169.8v19.64h9.15c2.23 0 3.3-1.74 3.01-3.78l-2.95-18.64c-1.84 2.04-5.08 3.1-9.21 2.78z" fill="#C7E9F7"/>
  <defs>
    <linearGradient id="paint0_linear_1428_1012" x1="105.5" x2="124" y1="-17.5" y2="260.5" gradientUnits="userSpaceOnUse">
      <stop stop-color="#47768C" offset="0"/>
      <stop stop-color="#15284A" offset="1"/>
    </linearGradient>
    <linearGradient id="paint1_linear_1428_1012" x1="127.5" x2="127.5" y1="1.5" y2="254.5" gradientUnits="userSpaceOnUse">
      <stop stop-color="#60798B" offset="0"/>
      <stop stop-color="#203551" offset="1"/>
    </linearGradient>
    <linearGradient id="paint2_linear_1428_1012" x1="184.9" x2="184.9" y1="32.81" y2="103.3" gradientUnits="userSpaceOnUse">
      <stop stop-color="#F0B986" offset="0"/>
      <stop stop-color="#F3A679" offset="1"/>
    </linearGradient>
    <linearGradient id="paint3_linear_1428_1012" x1="72.06" x2="72.06" y1="54.14" y2="187.6" gradientUnits="userSpaceOnUse">
      <stop stop-color="#4AF6F6" offset="0"/>
      <stop stop-color="#1BA1E2" offset="1"/>
    </linearGradient>
    <linearGradient id="paint4_linear_1428_1012" x1="70.44" x2="70.44" y1="146.9" y2="223.6" gradientUnits="userSpaceOnUse">
      <stop stop-color="#F0B986" offset="0"/>
      <stop stop-color="#F3A679" offset="1"/>
    </linearGradient>
    <linearGradient id="paint5_linear_1428_1012" x1="128.6" x2="128.6" y1="153.7" y2="228.1" gradientUnits="userSpaceOnUse">
      <stop stop-color="#1BA1E2" offset="0"/>
      <stop stop-color="#1BA1E2" offset="1"/>
    </linearGradient>
  </defs>
</svg>